<svg width="348.897mm" height="348.836mm" version="1.1" viewBox="0 0 348.897 348.836" xmlns="http://www.w3.org/2000/svg">
<path d="m273.887 0-5.68164 4.4629c-20.4333 16.0507-52.4646 22.9804-93.7891 24.3086-41.2892-0.9601-73.2885-7.8822-93.7227-23.9336l-5.68359-4.4629-55.7383 58.6836 3.68164 5.3067c7.17816 10.3494 10.0098 21.1931 10.6113 33.0039 3e-5 6e-4 -4e-5 0 0 0 0.31779 6.5558-0.0906 12.6259-1.3086 18.0391l-0.0547 0.2402-0.0391 0.2422c-3.32231 20.644-14.0538 43.9019-22.3555 67.8613-8.30166 23.9595-14.3012 49.3117-5.38676 74.0332l0.07 0.1914 0.078 0.1895c12.4054 29.5396 44.3486 47.6174 77.5996 60.9258 33.251 13.3083 68.8358 21.7684 89.7246 28.873l2.55859 0.8711 2.5586-0.8711c20.9342-7.1354 56.5177-15.6908 89.7598-29.0879s65.1564-31.5561 77.5586-61.0879l0.0801-0.1875 0.0684-0.1933c8.9145-24.7216 2.91691-50.0718-5.38476-74.0313-8.30167-23.9594-19.0351-47.2192-22.3574-67.8632l-0.0391-0.2403-0.0527-0.2402c-1.21884-5.419-1.6281-11.4943-1.30859-18.0567 0.60323-11.8046 3.43639-22.6434 10.6113-32.9882l3.67969-5.3086z" fill="#1b2064"/>
<path d="m11.8877 255.094c-15.8566-43.9733 20.9372-93.3578 28.1121-137.941 1.4128-6.2791 1.8391-13.063 1.4924-20.1858-0.6554-12.8747-3.8901-25.4082-12.0172-37.1258l46.3148-48.7604c22.7039 17.8343 56.5021 24.6773 98.6592 25.6353 42.157-1.3331 75.9552-8.176 98.6592-26.0104l46.3147 48.7603c-8.1271 11.7177-11.3617 24.2512-12.0171 37.1259-0.3468 7.1228 0.08 13.9067 1.4923 20.1858 7.175 44.583 43.9688 93.9675 28.1122 137.941-21.8045 51.9203-119.226 70.9634-162.561 85.7342-43.2755-14.7188-140.757-33.4388-162.561-85.3591z" fill="#fff"/>
<path d="m11.8897 255.411 307.536-195.628c-8.12718 11.7177-11.3617 24.2512-12.0172 37.1258-0.34671 7.12278 0.0793 13.9067 1.49233 20.1858 7.17498 44.583 43.9688 93.9672 28.1121 137.941-21.8044 51.9203-119.227 70.9634-162.561 85.7345-43.2754-14.7189-140.757-33.4389-162.561-85.3589z" fill="#1b2064"/>
<path d="m319.426 59.7829-43.9188 27.9373v219.122c27.7619-12.5432 51.929-29.002 61.5058-51.8061 15.8567-43.9738-20.937-93.358-28.112-137.941-1.41303-6.27909-1.83912-13.0631-1.49241-20.1858 0.6555-12.8746 3.89018-25.4082 12.0174-37.1259zm-109.985 69.9627-66.0647 42.0248v159.548c11.6773 3.41472 22.5884 6.56494 31.0756 9.45162 9.45338-3.22234 21.7341-6.73596 34.9891-10.6619v-200.362zm-132.13 84.0502-65.4208 41.615 0.001033 5.1e-4c10.021 23.8622 36.0374 40.6996 65.4198 53.3709v-94.9864z" fill="#e30644"/>
<path d="m85.3609 33.4143c-0.02787 0.0042-0.05441 0.0092-0.08221 0.01344-8.36382 0.0066-15.9631 3.30805-21.5697 8.67546a1.141 1.141 0 0 0-0.01791 0.01188 1.141 1.141 0 0 0-0.01194 0.01705c-5.92508 5.68729-9.61643 13.6848-9.61643 22.5366 0 17.2405 14.0005 31.2399 31.2409 31.2399s31.2415-13.9995 31.2415-31.2399c0-17.0806-13.7433-30.979-30.7635-31.2353a1.141 1.141 0 0 0-0.420655-0.01912zm0.103372 2.29702c3.24462 0.01762 6.35907 0.573271 9.26657 1.57251 2.30863 1.8138 4.34596 3.68058 5.64104 5.81566-1.82435 0.827604-3.69527 2.04051-5.59041 3.40703-5.33523-2.85173-11.693-3.34674-15.1252-3.73621a1.141 1.141 0 0 0-0.143116 0.01188c-0.979717-1.53547-1.95658-3.0256-3.05719-4.18785 1.91657-1.22526 5.05079-2.25801 9.00827-2.88302zm-12.0174 2.53318a1.141 1.141 0 0 0-0.08997 0.334346c-1.25978 0.503946-2.41194 1.0381-3.49794 1.5906 1.1444-0.72242 2.3424-1.3659 3.58792-1.92494zm27.9952 2.36936c4.10399 2.75702 7.4555 6.53988 9.70375 10.9792-0.40798-0.103402-0.81941-0.163887-1.23038-0.176216a1.141 1.141 0 0 0-0.0365 0.0062c-2.00853-2.78236-4.56119-5.28948-7.21763-7.74783a1.141 1.141 0 0 0 0.0285-1.12086c-0.36558-0.681695-0.78591-1.32562-1.24743-1.94045zm-22.1899 4.37751a1.141 1.141 0 0 0 0.146234 0.04703c3.61452 0.410151 9.90572 0.969505 14.7174 3.69693a1.141 1.141 0 0 0 0.140528 0.04651c1.02636 2.84068 2.0218 5.62398 3.27886 8.92553-2.89542 3.94396-6.36112 7.63849-10.3616 11.1151-3.38854-0.589211-6.85324-1.17864-10.4092-1.76785-3.44487-5.38834-5.01018-10.3106-4.41728-14.6467a1.141 1.141 0 0 0-0.0066-0.332279c1.82806-2.123 4.29082-4.56702 6.90964-7.08434zm-15.814 0.6904c-0.848809 1.9143-1.39082 3.78558-1.59836 5.60947-1.90828 1.56816-3.3273 3.5024-4.38736 5.41052 1.17604-4.12616 3.24847-7.86965 5.98572-11.02zm-0.146765 7.3701c2.69585 0.366702 4.33727 0.284062 6.67449 0.431498-0.216498 4.52911 1.46845 9.3168 4.54753 14.274-1.99015 2.79496-3.42921 5.6587-4.71188 8.53692-1.8195-0.03682-3.59707 0.03165-5.18826-0.201537-1.64308-0.240729-3.05566-0.758056-4.31915-2.02158a1.141 1.141 0 0 0-1.172-0.260966c-1.34875-2.3141-2.10056-5.0254-2.64947-7.86925a1.141 1.141 0 0 0 0.449584-1.07952c-1.33e-4 0.01314 0.0093 0.06436 0.0093 0.06873 0 0.02395 0-0.04711 0.01393-0.145206 0.02455-0.196196 0.08367-0.53554 0.180338-0.961185 0.193276-0.851291 0.539223-2.06351 1.07692-3.40444 0.986617-2.46028 2.62585-5.33662 5.08861-7.36751zm47.1629 0.714166c0.71286 0.135628 1.40363 0.497993 2.15749 1.24953 1.06571 3.01928 1.65111 6.26669 1.65111 9.65312 0 3.56404-0.64565 6.97473-1.82057 10.1265-0.24224-0.139003-0.48972-0.273593-0.74623-0.399975-0.27913-5.15246-0.57472-10.3538-2.68304-14.317a1.141 1.141 0 0 0-0.0246-0.03052c0.55495-1.72534 1.00685-4.02649 1.46606-6.28178zm-11.2665 5.54074c2.71847 0.733553 5.49075 1.51288 7.87807 1.98179 1.75169 3.41008 2.09784 8.55431 2.3854 13.8302a1.141 1.141 0 0 0 0.0398 0.155033c-2.01497 2.73724-4.03007 5.52574-6.04511 7.22334a1.141 1.141 0 0 0-0.64027-0.104899c-4.80874 0.783926-8.68024-0.01088-12.3093-1.94768-0.332809-3.39275-0.589449-6.79127-1.50381-10.1839 3.89319-3.41875 7.30634-7.06012 10.1953-10.9538zm-42.7007 4.83123c0.09866 0.06383 0.179542 0.13165 0.226384 0.193787 0.165277 0.219451 0.17576 0.336093 0.193277 0.411864 0.0066 0.01685-2.66e-4 0.0069 0 0.02063a1.141 1.141 0 0 0-0.419661-0.62632zm3.28563 12.4752c1.40946 1.01613 2.97518 1.51348 4.51031 1.7384 1.9453 0.285011 3.87256 0.183908 5.63944 0.226856a1.141 1.141 0 0 0 0.3555-0.06151c2.07614 2.68328 3.92079 5.39738 7.43366 7.89977-0.63231 1.82864-0.495896 3.95038-0.194802 6.15156-7.56119-2.1019-13.869-7.19168-17.5814-13.9195-0.123012-0.64444-0.188433-1.31734-0.162756-2.03554zm29.7889 5.9185c3.57697 1.87357 7.53571 2.76714 12.0773 2.31045-0.12288 1.68922-0.44819 3.2157-1.11619 4.46898-4.42147 2.73404-9.63296 4.31549-15.2193 4.31549-1.85407 0-3.66614-0.176357-5.42288-0.508496a1.141 1.141 0 0 0-0.01062-0.190165c-0.359415-2.41666-0.446532-4.60426 0.04047-5.88852a1.141 1.141 0 0 0 0.06821-0.488346c3.27169-1.21975 6.76002-2.11853 9.58292-4.01939z" color="#000000"/>
<path d="m256.33 37.3988-6.31279 4.01371 7.25796 33.2693 7.29774-4.64054-1.62161-5.93556 8.46202-5.38003 4.70514 3.97495 7.33289-4.66276zm2.16111 10.3699 7.84603 6.65076-5.1356 3.26543zm-31.0544 8.0021-6.82388 4.33824 17.1535 26.9772 17.9684-11.4246-3.39979-5.34696-11.1445 7.08639zm-15.2053 11.7352c-0.15488-0.0024-0.31043-0.0017-0.46612 0.0016-2.49064 0.05201-4.88717 0.809245-7.1701 2.26084l2e-3 0.0036c-2.30727 1.46707-4.02781 3.33632-5.14801 5.59707-1.10845 2.25423-1.50705 4.71581-1.19476 7.36286 0.31694 2.62738 1.31501 5.25702 2.98587 7.88479l0.95239 1.4981c1.65857 2.49979 3.60677 4.42315 5.84461 5.75934l2e-3 -1e-3c2.25017 1.32835 4.61561 1.96288 7.07864 1.89394l2e-3 -1e-3c2.45526-0.0813 4.83654-0.857649 7.13031-2.31614 2.29491-1.45921 4.0024-3.30923 5.10615-5.54281 1.10845-2.25423 1.50607-4.71779 1.19373-7.36493-0.3123-2.64692-1.30432-5.28003-2.96778-7.89616l-0.77773-1.22318c-1.65252-2.57189-3.61761-4.54665-5.89111-5.9123-2.12662-1.29823-4.35853-1.9687-6.68177-2.00453zm-1.49035 6.85953c0.7059 0.0023 1.42291 0.175921 2.16008 0.520381l2e-3 -1e-3c1.68629 0.766827 3.37677 2.44572 5.03948 5.06067l0.7767 1.22163c1.6119 2.56169 2.40002 4.78002 2.3983 6.64042-2e-3 1.8609-0.75449 3.2364-2.312 4.22662-1.64455 1.04568-3.25396 1.1532-4.94027 0.335896-1.68965-0.818965-3.36654-2.50668-5.00589-5.08444l-1.2175-1.9544-5e-3 -0.0083c-1.42259-2.4383-2.07743-4.50095-1.99833-6.1681 0.0791-1.66895 0.86306-2.96054 2.41536-3.94756v0.0015c0.89025-0.566058 1.7796-0.846305 2.68717-0.843359zm-23.92 9.53327c-2.4435 0.01292-5.06 0.916624-7.84293 2.68614l-10.6634 6.77788 17.1535 26.9772 6.82336-4.33875-5.96088-9.37462 3.12487-1.98696 10.6484 6.39444 7.19904-4.5775-0.34055-0.53588-12.208-7.09673c1.03466-1.71636 1.5808-3.4157 1.5503-5.08238l2e-3 -1e-3c-0.0205-1.75126-0.63859-3.5671-1.83142-5.44308-1.65471-2.60238-3.8792-4.07266-6.61716-4.34961-0.34199-0.03459-0.68756-0.05094-1.03663-0.04909zm-2.00229 7.23212c0.25076 0.0014 0.49603 0.03239 0.73587 0.09302l2e-3 -1e-3c0.95813 0.232733 1.77955 0.877012 2.48201 1.98179 0.70252 1.10486 0.93726 2.12179 0.74156 3.08818-0.18941 0.937279-0.84326 1.77656-2.02261 2.52646l-3.83853 2.44068-4.36924-6.8709 3.83852-2.44068c0.87407-0.555771 1.67805-0.821614 2.43035-0.817521zm-19.7244 4.27984-18.7508 11.9228 17.1535 26.9772 18.7146-11.9-3.39979-5.34645-11.8913 7.5613-3.75584-5.90714 10.0666-6.40115-3.29489-5.1816-10.0666 6.40064-3.29179-5.17643 11.928-7.58455zm-23.8507 15.1655-6.80527 4.32686 17.1535 26.9772 6.80527-4.32687zm-14.0798 11.4556c-0.50223-5e-3 -1.01404 0.0248-1.53428 0.0899l-2e-3 1e-3c-2.0775 0.24094-4.14606 1.02063-6.2022 2.32802l-10.8086 6.8709 17.153 26.9772 6.82543-4.33978-5.72937-9.0103 3.8747-2.46394c3.26803-2.07783 5.36578-4.51044 6.25388-7.29826 0.89141-2.80437 0.48731-5.56312-1.19166-8.20363-1.13489-1.78484-2.59638-3.10978-4.37544-3.95532l-2e-3 1e-3c-1.33128-0.64879-2.75508-0.98119-4.26175-0.99684zm-2.00585 7.01869c0.33545-2e-3 0.66957 0.044 1.00459 0.13694 1.07361 0.29796 1.98567 1.02537 2.75022 2.22777 0.69308 1.09001 0.89689 2.09463 0.65319 3.05873-0.23124 0.95202-0.92347 1.80878-2.12855 2.57504l-3.98322 2.53318-4.60076-7.23522 4.05454-2.57814c0.76858-0.47729 1.512-0.71381 2.24999-0.7183zm-34.2899 15.428c-2.55145 0.0108-5.15903 0.86635-7.80728 2.55023l-1e-3 -2e-3c-2.27096 1.44399-3.93748 3.27034-4.98058 5.46737-1.05006 2.18381-1.40633 4.57667-1.06815 7.15512 0.342872 2.55969 1.35353 5.15338 3.02359 7.77988l0.835091 1.31362c2.65808 4.18038 5.75041 6.8043 9.27489 7.82329 3.52119 1.01813 7.07981 0.38618 10.6154-1.8619 2.1416-1.36173 3.80243-2.96996 4.97128-4.82709 1.18048-1.86394 1.78491-3.8234 1.8004-5.86166 8e-3 -2.04815-0.54777-4.04775-1.65674-5.9831l-0.13023-0.22686-6.79079 4.31757 0.123507 0.20877c0.888796 1.50274 1.14713 2.79156 0.833541 3.89537-0.316112 1.11265-1.16891 2.12723-2.60708 3.04167-1.68962 1.07434-3.18379 1.22763-4.59558 0.50798-1.40364-0.72874-3.03163-2.49723-4.82193-5.31285l-1.19373-1.87689c-1.61287-2.61689-2.40797-4.73693-2.42311-6.31951-0.01522-1.58301 0.708164-2.82246 2.24844-3.80183 1.53694-0.97726 2.86538-1.33687 3.99614-1.13379 1.1233 0.20178 2.21932 1.04791 3.27474 2.60243l0.136426 0.19999 6.8187-4.33565-0.16639-0.21808c-2.1923-2.84869-4.85326-4.51968-7.95197-4.97489-0.582599-0.0877-1.16872-0.13013-1.75752-0.12764zm-24.9933 16.384c-2.52717 0.019-5.3991 1.07007-8.62583 3.12178l-9.75083 6.19962 17.1535 26.9772 10.9916-6.98924c3.24685-2.09885 5.30981-4.34688 6.15001-6.76651 0.844983-2.44066 0.405545-5.01883-1.27744-7.66568-0.935393-1.4711-2.12601-2.4937-3.55534-3.03961-1.2719-0.4858-2.66018-0.4725-4.11603-0.10697 0.746179-1.14198 1.19717-2.33962 1.20974-3.59771 0.01433-1.42855-0.435396-2.85383-1.32964-4.26021-1.5489-2.43596-3.69075-3.74308-6.34897-3.86229-0.165416-8e-3 -0.332267-0.0116-0.500745-0.0103zm-1.94565 7.27759c0.0567 1e-3 0.112411 5e-3 0.166914 0.01l0.0016-1e-3c0.861868 0.0693 1.6208 0.60137 2.30632 1.67948 0.591186 0.92977 0.737761 1.76414 0.483175 2.56522-0.249968 0.78606-1.03576 1.64756-2.40037 2.53266l-3.12694 1.988-3.62717-5.70405 2.92747-1.86138c1.32223-0.84073 2.41858-1.22976 3.26905-1.20872zm-19.7414 4.14911-18.1875 11.5642 17.153 26.9772 6.82542-4.33978-6.7262-10.5776 10.3224-6.56343-3.39928-5.34696-10.3224 6.56343-3.61683-5.68751 11.3626-7.22488zm26.57 5.76192c0.219705-4e-3 0.431891 0.0176 0.637688 0.0646 0.823132 0.18798 1.57326 0.78822 2.25464 1.85984 0.581904 0.91516 0.726251 1.76977 0.467672 2.62826l0.0031-2e-3c-0.264775 0.84418-0.93858 1.6267-2.06189 2.34095l-3.98374 2.53318-3.7791-5.94331 4.27571-2.7187c0.802825-0.50158 1.5268-0.74949 2.18591-0.76274z" fill="#1b2064"/>
<path d="m233.063 21.4421a4.63021 4.63021 0 0 0-2.28616 0.72037l-208.486 132.859a4.63021 4.63021 0 0 0-1.41593 6.39289 4.63021 4.63021 0 0 0 6.39289 1.41593l208.486-132.857a4.63021 4.63021 0 0 0 1.41593-6.39444 4.63021 4.63021 0 0 0-2.90267-2.0314 4.63021 4.63021 0 0 0-1.20406-0.10542zm84.9013 33.369-309.359 197.141 4.97644 7.8109 309.359-197.141-4.97644-7.81038z" fill="#1b2064"/>
</svg>
