<svg width="566.3mm" height="543.6mm" version="1.1" viewBox="0 0 566.3 543.6" xmlns="http://www.w3.org/2000/svg">
<g transform="translate(232.2 109.2)">
<path d="m-220.3 305.8c-26.46-73.39 34.94-155.8 46.92-230.2 2.358-10.48 3.069-21.8 2.491-33.69-1.094-21.49-6.492-42.41-20.06-61.96l77.3-81.38c37.89 29.77 94.3 41.19 164.7 42.78 70.36-2.225 126.8-13.65 164.7-43.41l77.3 81.38c-13.56 19.56-18.96 40.47-20.06 61.96-0.5787 11.89 0.1328 23.21 2.491 33.69 11.97 74.41 73.38 156.8 46.92 230.2-36.39 86.65-196.4 108.7-271.3 123.9-74.89-14.56-234.9-36.58-271.3-123.2z" fill="#fff"/>
<path d="m-206 310.1 498.9-330.8c-13.56 19.56-18.96 40.47-20.06 61.96-0.5787 11.89 0.1328 23.21 2.491 33.69 11.97 74.41 73.38 156.8 46.92 230.2-36.39 86.65-196.4 108.7-271.3 123.9-62.69-12.18-185-29.6-244.6-85.78-4.234-3.995-8.15-8.185-11.71-12.58-3.461-4.283-9.944-14.41-9.944-14.41z" fill="#29176e"/>
<path d="m293-15.32-42.09 27.91v366c32.59-16.77 59.12-38.7 71.45-68.06 26.46-73.39-34.94-155.8-46.92-230.2-2.358-10.48-3.07-21.8-2.491-33.69 1.094-21.49 6.493-42.41 20.06-61.96z" fill="#1b2064"/>
<path d="m250.9 12.59-79.38 52.64v343.1c27.59-7.671 55.16-17.28 79.38-29.74z" fill="#e30644"/>
<path d="m12.74 170.5-79.37 52.64v186.5c27.7 7.511 55.23 13.08 79.37 17.63z" fill="#1b2064"/>
<path d="m-146 275.8-59.94 39.75-9.284 6.115s6.483 10.13 9.945 14.41c3.555 4.399 7.471 8.589 11.71 12.58 13.21 12.46 29.52 23.01 47.57 32.02z" fill="#1b2064"/>
<path d="m-66.63 223.1-79.37 52.64v104.9c24.36 12.16 51.91 21.51 79.37 28.96z" fill="#e30644"/>
<path d="m171.5 65.23-79.38 52.64v308.6c24.31-4.727 51.78-10.43 79.38-18.1z" fill="#1b2064"/>
<path d="m92.12 117.9-79.37 52.64v256.7c14.15 2.669 27.17 5.006 38.26 7.161 11.81-2.394 25.89-5.004 41.11-7.965z" fill="#e30644"/>
<path d="m212.7-106.5-422.4 277.3 5.809 8.846 422.4-277.3z" color="#000000" fill="#1b2064" style="-inkscape-stroke:none"/>
<path d="m-35.59 14.78a45.37 45.37 0 0 1-45.37 45.37 45.37 45.37 0 0 1-45.37-45.37 45.37 45.37 0 0 1 45.37-45.37 45.37 45.37 0 0 1 45.37 45.37z" color="#000000" fill="#fff" style="-inkscape-stroke:none"/>
<path d="m-80.95-31.54c-12.28 0-24.07 4.88-32.75 13.57-8.687 8.687-13.57 20.47-13.57 32.75 0 12.28 4.88 24.07 13.57 32.75 8.687 8.687 20.47 13.57 32.75 13.57s24.07-4.88 32.75-13.57c8.687-8.687 13.57-20.47 13.57-32.75 0-12.28-4.88-24.07-13.57-32.75-8.687-8.687-20.47-13.57-32.75-13.57zm0 1.909c11.78 0 23.07 4.679 31.4 13.01 8.329 8.329 13.01 19.62 13.01 31.4 0 11.78-4.679 23.07-13.01 31.4-8.329 8.329-19.62 13.01-31.4 13.01s-23.07-4.679-31.4-13.01c-8.329-8.329-13.01-19.62-13.01-31.4 0-11.78 4.679-23.07 13.01-31.4 8.329-8.329 19.62-13.01 31.4-13.01z" color="#000000" style="-inkscape-stroke:none"/>
<path d="m-80.75-31.57c-7.866 1.198-13.92 3.268-17.2 6.55l1.35 1.35c2.712-2.712 8.461-4.844 16.14-6.013zm15.55 2.884-1.177 1.503c3.841 3.008 7.263 6.143 9.275 9.895l1.683-0.9023c-2.226-4.152-5.869-7.433-9.78-10.5zm-46.44 10.03-1.363 1.337 2.959 3.017 1.363-1.337zm22.09 1.19-0.2152 1.897c5.419 0.615 15.02 1.44 22.47 5.667l0.9415-1.661c-7.97-4.518-17.85-5.296-23.2-5.903zm-25.1 11.76c-4.907 3.508-7.888 8.746-9.627 13.08-0.8696 2.168-1.427 4.115-1.749 5.534-0.1611 0.7093-0.2633 1.283-0.3166 1.707-0.0266 0.2119-0.0426 0.3793-0.0427 0.5504 0 0.08555-5e-3 0.161 0.0329 0.3247 0.019 0.08184 0.0331 0.1928 0.1777 0.3848 0.1446 0.192 0.6257 0.4436 0.9839 0.364l-0.4142-1.864c0.3475-0.07722 0.8191 0.1701 0.9555 0.3513 0.1364 0.1812 0.1437 0.2748 0.1572 0.3329 0.0127 0.05504 0.0163 0.08152 0.0173 0.09614 4.8e-4 -0.02914 7e-3 -0.1418 0.0268-0.3021 0.0418-0.3323 0.134-0.8617 0.2841-1.523 0.3002-1.322 0.8322-3.183 1.66-5.246 1.655-4.126 4.497-9.046 8.965-12.24zm70.77 1.274-0.05728 1.908c1.667 0.05002 3.237 0.689 4.877 2.399l1.378-1.321c-1.912-1.994-4.046-2.921-6.198-2.986zm-59.25 0.3667c-1.017 7.439 1.675 15.48 7.092 23.94l1.608-1.03c-5.275-8.233-7.738-15.84-6.808-22.65zm41.57 8.352c-4.572 6.31-10.09 12.19-16.5 17.71l1.246 1.447c6.502-5.598 12.13-11.59 16.8-18.03zm15.67 3.93-1.686 0.8967c2.859 5.374 3.345 13.31 3.785 21.37l1.907-0.1039c-0.4392-8.057-0.8311-16.2-4.005-22.16zm-73.3 21.27-1.35 1.35c2.372 2.372 5.184 3.387 8.014 3.802 2.831 0.4147 5.707 0.2687 8.409 0.3344l0.0464-1.909c-2.797-0.06799-5.601 0.06285-8.178-0.3148-2.578-0.3777-4.903-1.225-6.941-3.263zm45.12 9.426-0.9304 1.667c6.076 3.391 12.82 4.856 20.86 3.545l-0.3072-1.884c-7.655 1.248-13.86-0.113-19.62-3.328zm-17.51 8.629c-1.078 2.845-0.7647 6.448-0.2043 10.22l1.889-0.2809c-0.547-3.678-0.7305-7.063 0.1012-9.259z" color="#000000" style="-inkscape-stroke:none"/>
<path d="m-112-17.68c4.64-2.921 9.509-5.785 16.34-8.096 2.692 2.234 4.831 5.862 7.103 9.394-5.499 5.251-10.73 10.39-13.82 14.43-5.232-0.4773-7.828-0.03819-14.13-1.146 0.0573-4.659 1.604-9.528 4.506-14.59zm55.45-0.7637c5.174 4.735 10.25 9.509 13.82 15.05-1.05 5.002-2.005 10.56-3.437 13.44-4.468-0.6683-10.23-2.387-15.66-3.819-2.635-6.816-4.411-11.93-6.492-17.64 4.01-2.979 7.962-5.652 11.76-7.026zm-62.49 57.91a45.37 45.37 0 0 1-7.217-26.58l1.127-0.1337c1.031 6.53 2.368 12.87 5.938 17.72-0.6874 3.418-0.0382 6.167 0.9738 8.745zm22.85-21.48c6.969 1.146 13.69 2.291 20.24 3.437 2.024 6.358 2.291 12.74 2.979 19.09-5.022 4.162-11.93 5.48-18.02 8.019-7.103-4.582-9.986-9.699-14.05-14.66 2.329-5.365 4.907-10.71 8.859-15.89zm57.53 12.95a45.37 45.37 0 0 1-17.66 21.9l-2.215-0.09547c1.604-2.425 2.177-5.671 2.253-9.318 4.43-2.119 8.859-8.84 13.29-14.74 1.642 0.5728 3.036 1.375 4.334 2.253zm-43.67 29.16a45.37 45.37 0 0 1-18.96-4.792c3.8 1.413 7.007 2.73 10.35 1.585 1.012 1.432 3.36 2.559 8.611 3.208z"/>
<path d="m-139.8 206.8-17.03 11.26 11.54 17.45-10.56 6.983-28.97-43.81 29.31-19.38 5.391 8.155-18.75 12.39 6.665 10.08 17.03-11.26z" fill="#1b2064"/>
<path d="m-122.1 220.2-28.97-43.81 15.74-10.4q8.456-5.59 14.9-5.395 6.473 0.1749 10.37 6.073 2.248 3.4 2.275 6.842 0.0268 3.442-2.256 6.595 4.027-1.365 7.494-0.1113 3.467 1.254 5.814 4.805 4.257 6.44 2.314 12.4-1.934 5.906-9.898 11.26zm-1.753-25.61 6.943 10.5 6.921-4.576q2.859-1.89 3.538-4.198 0.6592-2.339-0.9124-4.716-3.621-5.477-9.087-1.906zm-4.576-6.921 5.507-3.641q3.441-2.318 4.099-4.527 0.6587-2.209-0.9328-4.616-1.83-2.768-4.221-2.918-2.411-0.1793-5.961 2.168l-5.176 3.422z" fill="#1b2064"/>
<path d="m-56.71 155.7q2.813 4.713 2.884 9.726 0.05098 4.983-2.768 9.614-2.789 4.612-8.025 8.073-8.636 5.71-17.32 3.365-8.685-2.344-15.47-12.61l-1.432-2.167q-4.257-6.44-5.214-12.73-0.9461-6.337 1.536-11.74 2.462-5.433 7.999-9.094 7.974-5.272 15.6-4.262 7.61 0.9796 13.15 7.914l-10.53 6.963q-2.766-3.923-5.816-4.415-3.05-0.492-6.931 2.074-3.942 2.606-3.828 6.769 0.1141 4.163 4.301 10.69l2.049 3.099q4.635 7.011 8.37 8.867 3.765 1.835 8.068-1.01 3.641-2.407 4.433-5.396 0.7919-2.988-1.555-6.799z" fill="#1b2064"/>
<path d="m-25.83 135.2 9.828 14.87-10.56 6.983-28.97-43.81 17.48-11.56q5.025-3.322 10.11-4.003 5.095-0.7309 9.47 1.307 4.385 1.988 7.249 6.321 4.238 6.409 2.18 13.31-2.047 6.846-10.05 12.14zm-5.391-8.155 6.921-4.576q3.069-2.029 3.65-4.618 0.6103-2.609-1.24-5.407-2.029-3.069-4.898-3.811-2.869-0.7413-5.747 1.119l-7.041 4.655z" fill="#1b2064"/>
<path d="m24.8 123.1-10.53 6.963-28.97-43.81 10.53-6.963z" fill="#1b2064"/>
<path d="m47.04 81.73-16.61 10.98 6.903 10.44 19.62-12.97 5.372 8.125-30.18 19.95-28.97-43.81 30.24-19.99 5.391 8.155-19.68 13.01 6.108 9.238 16.61-10.98z" fill="#1b2064"/>
<path d="m72.68 69.23-5.717 3.78 10.23 15.47-10.56 6.983-28.97-43.81 17.24-11.4q7.794-5.153 14.47-4.597 6.681 0.5559 10.86 6.875 3.024 4.574 3.148 8.816 0.1539 4.223-2.555 8.695l20.83 11.62 0.2984 0.4514-11.31 7.48zm-11.11-4.375 6.68-4.417q3.009-1.989 3.479-4.549 0.4802-2.609-1.39-5.438-1.87-2.829-4.459-3.409-2.609-0.6103-5.588 1.359l-6.68 4.417z" fill="#1b2064"/>
<path d="m130 23.35q4.238 6.409 5.123 12.92 0.8854 6.507-1.737 12.09-2.613 5.533-8.21 9.233-5.597 3.7-11.62 4.007-6.044 0.2769-11.64-2.896-5.571-3.193-9.789-9.312l-1.631-2.467q-4.257-6.439-5.153-12.9-0.8855-6.507 1.737-12.09 2.653-5.603 8.28-9.323 5.567-3.68 11.68-3.917 6.114-0.2366 11.76 3.077 5.66 3.263 9.868 9.563zm-11.96 5.267q-4.317-6.53-8.742-8.448-4.415-1.968-8.477 0.7178-7.944 5.252-0.5173 17.47l2.099 3.24q4.257 6.439 8.682 8.488 4.424 2.048 8.637-0.7372 4.002-2.646 3.921-7.479-0.0815-4.833-4.269-11.23z" fill="#1b2064"/>
<path d="m154.6 25.64 18.39-12.16 5.372 8.125-28.95 19.14-28.97-43.81 10.56-6.983z" fill="#1b2064"/>
<path d="m202.8-6.346-14.47 9.569 2.884 9.856-11.28 7.46-12.9-54.44 9.93-6.565 45.16 33.11-11.34 7.5zm-17.34-0.2567 9.419-6.227-14.77-12.07z" fill="#1b2064"/>
<path d="m216.2-109.2-3.787 2.977c-36.38 28.57-91.6 40.05-161.4 42.28-69.79-1.599-125-13.07-161.4-41.65l-3.789-2.975-83.58 87.99 2.453 3.537c12.93 18.64 18.06 38.44 19.12 59.22 0.5595 11.51-0.1392 22.36-2.367 32.26l-0.0371 0.1582-0.0254 0.1621c-5.811 36.11-23.98 75.16-37.65 114.6-13.67 39.44-22.91 79.74-9.021 118.3l0.0469 0.1289 0.0527 0.125c19.21 45.73 69.9 73.26 124.4 91.62s113.5 27.52 150.8 34.76l1.031 0.2011 1.031-0.209c37.21-7.544 96.23-16.87 150.7-35.3s105.2-45.96 124.4-91.69l0.0527-0.127 0.0469-0.1269c13.89-38.52 4.643-78.81-9.023-118.3-13.67-39.44-31.84-78.5-37.65-114.6l-0.0254-0.1602-0.0352-0.1601c-2.228-9.902-2.929-20.75-2.369-32.26 1.058-20.78 6.187-40.57 19.12-59.21l2.455-3.539zm-1.148 14.16 71.25 75.01c-12.42 19.43-17.6 40.16-18.66 61.04v0.01l-2e-3 0.01c-0.5935 12.19 0.1251 23.92 2.578 34.92 6.185 38.26 24.67 77.58 38.07 116.3 13.4 38.68 21.62 76.25 9.098 111.1-17.24 40.84-64.7 67.61-118 85.62-52.9 17.89-110.7 27.15-148.4 34.75-37.67-7.287-95.49-16.4-148.4-34.21-53.26-17.94-100.7-44.71-118-85.54-12.52-34.84-4.303-72.41 9.098-111.1 13.38-38.61 31.82-77.86 38.04-116.1 5e-3 -0.022 7e-3 -0.045 0.0117-0.066 2.475-11.03 3.197-22.81 2.602-35.04v-0.02c-1.063-20.88-6.24-41.61-18.66-61.04l71.25-75.01c39.24 28.74 95.32 39.49 163.9 41.05h0.1426l0.1445-0.01c68.57-2.168 124.6-12.94 163.9-41.68z" color="#000000" fill="#1b2064" style="-inkscape-stroke:none"/>
<path d="m290-25.13-510.2 338.4 5.848 8.82 510.2-338.4z" color="#000000" fill="#1b2064" style="-inkscape-stroke:none"/>
</g>
</svg>
