<svg version="1.1" viewBox="0 0 625.9 30.61" xmlns="http://www.w3.org/2000/svg">
<path d="m368.1 0.02682c-0.368 0.3887-0.9805 0.2592-1.471 0.7773-0.3678 0.5183-0.9796 0.9071-1.715 1.037-0.4903 0.1296-0.9824 0.5171-1.473 0.6465-0.2453 0-0.245 0.5187-0.4902 0.6484-0.245 0.1294-0.4892-0.1296-0.7344 0-0.1225 0-0.2466 0.3887-0.3691 0 0-0.1296-0.2441-0.3887-0.2441-0.3887-0.3678 0.259-0.8586 7.656e-4 -1.227 0.2598-0.2453 0.1296-0.3683 0.3875-0.6133 0.6465-0.2453-0.3887-0.6121-0.3875-0.8574-0.2578-0.4903 0-0.3672-0.2597-0.3672-0.6484 0-0.1296-0.2461-0.3892-0.2461-0.2598 0 0.5183-0.4908 0.5187-0.6133 0.6484-0.2453 0-0.6121-0.2598-0.8574-0.2598-0.4903-0.1294-0.9805-0.5176-1.471-0.1289-0.245 0.1294-0.4911 0.2598-0.7363 0.2598-0.245 0-0.6133-0.259-0.6133-0.3887 0-0.6477-0.6119-0.2602-0.7344-0.5195-0.368-0.3887-0.7355 0-0.9805 0-0.4905 0.3887-0.8589 0.2606-1.35 0.1309-0.858-0.3887-1.839-0.6477-2.697 0-0.3678 0.259-0.7352 0.1283-0.9805-0.1309l-1.471-0.2578c-0.9808 0.6477-2.208 0.6482-2.943 1.814-0.2453 0.5183-0.7353 0.3887-1.104 0-0.1225-0.1294-0.1233-0.2598-0.2461-0.2598-0.6128 0.1296-1.348 0.519-1.961-0.1289h-0.2441c-0.3678 0.2593-0.8589 0.5176-1.227 0.9062-0.3678 0.5183-0.8586-0.3894-1.35 0.1289-0.1225 0.1294-0.4892 0.1302-0.7344 0.2598-0.2453 0.1296-0.4908 0.2583-0.6133 0.5176-0.1225 0.6477-0.3677-0.1281-0.4902 0.1309-0.3678 0.648-1.471 0.6477-1.594 1.555 0 0-0.3695 0.1289-0.4922 0.1289-0.1225-0.1297-0.3672-0.3875-0.3672-0.6465-0.1225-0.3887-0.2444-0.2593-0.3672 0-0.1225 0.1294-0.2461 0.259-0.2461 0.3887 0 0.6477-0.6121 0.2578-0.8574 0.6465-0.2453-0.1296-0.3681-0.259-0.6133-0.3887-0.245-0.1297-0.4906-0.2582-0.6133-0.1289-0.2925 0.4122-0.4362 0.07583-0.6035-0.04297 0.0948-0.1196 0.1133-0.2389 0.1133-0.4766h-0.3672c-0.1228 0-0.1236 0.1309-0.2461 0.1309-0.3678 0.1296-0.858-0.2597-0.9805 0.5176 0 0.259-0.8577 0.1295-0.9805 0.7773 0 0.1296-0.2444 0.2593-0.3672 0.3887-0.3678 0.3887-0.3694 0.2593-0.9824 0-0.1225 0-0.2447 0.1309-0.3672 0.1309-0.4903 0-0.7361 0.6465-1.35 0.2578-0.7355-0.518-1.349-0.519-2.084 0.1289-0.1228 0.1296-0.4902 0.2598-0.4902 0.2598-0.3678-0.6477-0.7353-6.938e-4 -0.9805 0.1289-0.3678 0.1296-0.6125 0.3899-0.9805 0.5195-0.3678 0.1294-0.8574-0.00122-0.8574 0.6465h-1.104c-0.1228 0-0.2447 0.2598-0.3672 0.2598-0.2453 0.1296-0.491 0.3892-0.7363 0.2598-0.245 0-0.3681 0.6472-0.6133 0.1289-0.245 0.1296-0.3683 0.388-0.6133 0.5176-0.1228 0.1296-0.2447 0-0.3672 0-0.7355 0.1296-1.472 0.5195-2.33 0.5195-0.7356 0-1.593-4.93e-4 -2.451 0.1289-0.245-0.5181-1.227 4.5e-4 -1.227-0.9062 0-0.1296-0.3669-0.1296-0.8574-0.3887-0.4903-0.2593-0.8586-0.3892-1.227-0.2598-0.3678 0.1296-0.4896 0.388-0.8574 0.1289-0.1225-0.1296-0.6141 0.2602-0.8594 0.5195h-0.3672c-0.4903-0.3887-0.9806-0.1309-1.594-0.1309-0.4905 0.1296-1.104-0.1289-1.717-0.1289-0.4903 0-0.9812 0.7766-1.227-0.2598-0.1228 0.1296-0.2447 0.1309-0.3672 0.1309-0.8583 0-1.595 0.518-2.453 0.3887-0.6128-0.1296-0.6122-4.4e-5 -0.3672-0.7773v-0.3887c-0.1225 0-0.2444-4.937e-4 -0.3672 0.1289-0.245 0.1296-0.3681 0.3887-0.6133 0.3887-0.3678 0.1296-0.7367 5.22e-4 -0.2461-0.5176 0 0-0.1216-0.3887-0.2441-0.3887-0.2453 0-0.3681 0.1289-0.6133 0.1289 0.3678 0.3887 0.2448 0.5183-0.123 0.3887h-0.2441c-0.2453 0-0.4911-0.1289-0.7363-0.1289 0.1225-0.1296 0.3677-0.2593 0.4902-0.3887 0 0 0.1228-0.2598 0-0.2598-0.1225-0.1294-0.2444-0.2585-0.3672-0.1289-0.4903 0.259-0.8586 0.5168-1.35 0.6465-0.245 0.1296-0.6119 0.2598-0.7344 0.2598-0.3678-0.3887-0.4911-0.1301-0.7363 0.1289-0.1225 0.259-0.3672 0.2597-0.3672-0.1289 0-0.3887-0.3695-0.259-0.4922-0.3887-0.1225 0-0.2444-0.1302-0.3672-0.2598 0 0.1296-0.1225 0.259 0 0.3887 0 0.259 0.1236 0.3894 0.2461 0.6484-0.2453 0-0.4913-6.93e-4 -0.7363 0.1289-0.4905 0.259-0.7364-0.5183-1.227 0-0.3678 0.259-0.9795-0.2583-1.348-0.5176-0.1225-0.1294-0.3677 0.1289-0.4902 0.1289-0.368 0-0.7373 0.0013-1.105 0.1309-0.1225-0.907-0.8566-0.3899-1.225-0.5195-0.2453-0.1296-0.6141-0.2578-0.8594-0.2578-0.1225 0.518-0.3681 0.3882-0.6133 0.1289-0.3678-0.3887-0.6125-0.7768-0.9805-0.1289 0 0-0.2444-0.00126-0.3672-0.1309-0.1225-0.1296-1.595-0.7766-1.717-0.9062-0.2453-0.1294-0.6124-0.1294-0.8574-0.3887-0.368-0.3887-0.6127 0.1289-0.9805 0.1289s-0.4902-0.5176-0.9805-0.1289c-0.3678 0.3887-0.735 2.81e-5 -1.104-0.3887h-0.2461c-0.3678 0.2593-0.8578-7.218e-4 -1.104 0.5176-0.1225 0.259-0.6122-0.1283-0.8574 0.1309-0.1225 0.1294-0.4913 0-0.7363 0-0.1228 0-0.2461-0.2598-0.2461-0.2598 0-0.7773-0.1214-0.7773-0.7344-0.3887-0.4905 0.3887-1.104 0.388-1.717 0.5176-0.2453 0-0.4894-0.2577-0.7344 0.1309 0 0-0.3683-0.2598-0.6133-0.2598h-0.8594c-0.2453 0.1296-0.4897 0.5176-0.8574 0.5176-0.2453 0-0.6121-0.2578-0.8574-0.2578-0.2453 0-0.4906 0.2578-0.6133 0.2578-0.245-0.259-0.4911-0.2578-0.7363-0.2578-0.3678 0-0.7353-0.1296-0.9805-0.3887-0.3678-0.2593-0.6124-0.2593-0.8574 0-0.2453 0.3887-0.7355 0.5168-0.9805 0.2578-0.2453-0.259-0.8594-0.6466-0.3691-1.295 0.1228-0.1297 0-0.5182 0-0.7773-0.4903 0.5183-0.8586 1.164-1.227 1.812-0.1228 0.3887-0.6121 0.3902-0.8574 0.1309-0.1225-0.259-0.2449-0.6484-0.4902-0.6484s-0.4913 0.259-0.7363 0.3887c-0.2453 0.259-0.7361 7.375e-4 -0.6133 0.6484-0.4905 0-0.6116 0.7774-1.225 0.3887-0.2453-0.1294-0.736 0.1281-1.104-0.1309-0.1225-0.1296-0.6138 0.1294-0.7363 0.3887-0.2453 0.3887-0.4888-0.1296-0.6113 0-0.2453 0.1294-0.2466 0.518-0.3691 0.7773-0.2453 0.3887-0.4896 0.2598-0.8574 0.2598s-1.104 0.2583-1.35 0.5176c-0.4903 0.259-0.7353 0.6488-0.9805 1.037-0.2453 0.259-0.6124 0.5182-0.8574 0.7773-0.3678 0.259-0.7369 0.3894-0.8594-0.1289-0.1225-0.259 6e-5 -0.6485-0.4902-0.2598-0.2453 0.259-0.3669 0.907-0.8574 0.3887-0.2453 0.259-0.1228 0.778-0.6133 0.6484-0.1225 0-0.2444 0.388-0.3672 0.1289 0-0.1296-2e-3 -0.259 0.1211-0.3887 0.1225-0.259 0.2467-0.3887-0.1211-0.3887-0.2453 0-0.4906 0.1304-0.6133 0.2598-0.3678 0.3887-0.6136 0.3887-0.7363 0-0.1225-0.1294-5.4e-4 -0.3902-0.123-0.5195-0.2453-0.3887-0.3666-0.9058-0.2441-1.424-0.3678 0-0.8586 0.1289-1.227 0.1289-0.245 0-0.3683-0.259-0.6133 0-0.2453 0.259-0.4891-0.388-0.7344-0.5176-0.1225-0.1294-0.3677 0-0.4902 0-0.613 0.1296-1.35 0.907-1.84-0.3887 0-0.1294-0.4908-0.1309-0.6133-0.1309-0.2453 0.1294-0.3675 0.3901-0.4902 0.5195-0.3678 0.3887-0.4911 0.3872-0.7363-0.1309-0.1225-0.1296-0.1211-0.2593-0.1211-0.3887 0 0.1294-0.123 0.259-0.123 0.3887 0 0.1294-0.123 0.1302-0.123 0.2598-0.1225 0.1296-0.2447 0.1304-0.3672 0.2598 0-0.1294-0.123-0.259-0.123-0.3887 0-0.5181-0.123-0.6477-0.6133-0.3887-0.1228 0.1296-0.3677 0.1289-0.4902 0.1289-0.1225 0.1296-0.3672 0.2598-0.3672 0.2598 0.2453 0.907-0.4908 1.166-1.104 1.555-0.4905 0.3887-0.735 0.2585-1.104-0.2598-0.1225-0.1296-0.1236-0.259-0.2461-0.3887 0-0.3887-0.1222-0.2583-0.3672-0.1289-0.7358 0.3887-1.349 0.6481-2.084 1.037-0.245 0.1294-0.7363-0.0013-0.7363-0.1309 0-0.5183-0.1224-0.5176-0.4902-0.1289-0.2453 0.2593-0.3661 0.5187-0.6113 0.6484-0.3678 0.259-0.9819-0.1308-0.8594-0.5195 0-0.259-0.1219-0.3887-0.3672-0.3887-0.245 0.1296-0.6142 0.2603-0.8594 0.1309-0.3678-0.2593-0.4894-0.2593-0.7344 0-0.2453 0.259-0.491 0.518-0.7363 0.7773-0.1225 0.1294-0.2441 0.1289-0.2441 0.1289-0.613-0.3887-1.472-0.259-1.84-1.166 0-0.1294-0.1213-0.1302-0.2441-0.2598-0.3678 0.6477-0.736-0.1289-1.104-0.1289-0.4903 0.1296-0.6138-0.3894-0.7363-0.6484-0.2453-0.3887-0.6127 0.3887-0.9805 0 0 0-0.123-0.1284-0.123-0.2578-0.2453-0.7773-0.2448-0.7777-1.104-0.6484-0.4903 0-0.8586 4.219e-4 -1.227-0.5176-0.4905-0.7774-0.9806-0.7779-1.594-0.2598-0.1225 0.1296-0.2447 0.1289-0.3672 0.1289-0.3678 0-0.491-0.6477-1.104-0.3887-0.2453 0.1296-0.7355-0.2583-0.9805-0.5176-0.2453-0.259-0.491-0.3887-0.7363 0-0.3678 0.5183-0.4897 0.3887-0.8574 0-0.1225-0.1294-0.4908 4.938e-4 -0.6133-0.1289-0.3678-0.3887-0.6135 0.3874-1.104-0.1309-0.3678-0.3887-0.8569 0.2597-1.225 0.6484-0.1225 0.1296-0.2463 0.388-0.3691 0.1289-0.1225-0.1296-0.2441-0.5171-0.2441-0.6465 0.1228-0.3887 0.3675-0.6481 0.4902-1.037 0.1225-0.3887-7e-5 -0.6476 0.4902-0.7773 0.2453 0 0.6133-0.3887 0.6133-0.7773-0.2453 0.1296-0.6124 0.2578-0.8574 0.2578h-0.123c0 0.1296-0.123 0.1301-0.123 0.2598-0.1228-0.1296-0.1233-0.1301-0.2461-0.2598-0.2453 0-0.4886-0.1289-0.6113 0.2598-0.1225 0.259-0.3681 0.518-0.6133 0.7773-0.245 0.259-0.3692 0.5176-0.8594 0.5176-0.2453 0-0.3661 0.5195-0.6113 0.5195-0.3678 0.1296-0.7372 0-0.9824 0-0.3678 0-0.8566 0.1288-1.225-0.2598 0 0-0.2463 0.00126-0.3691 0.1309-0.6128 0.7773-1.349 0.6465-2.084 0.2578 0 0-0.1326 0.1422-0.1953 0.4414 0.0189 0.02262 0.0742 0.03907 0.0742 0.07812 0 0.1294-7.9e-4 0.2585-0.2461 0.1289-0.4903-0.1294-0.9814 0.2598-1.35 0.2598-0.8583-0.2593-1.471 0.1282-2.084 0.6465-0.3678 0.259-0.4908 0.519-0.6133-0.1289 0 0-0.4902-6.937e-4 -0.4902 0.1289 0 0.3887-0.1225 0.6485-0.4902 0.2598-0.2453-0.259-0.3681-0.518-0.6133 0 0 0-0.2444-0.00146-0.3672-0.1309-0.3678-0.2593-0.6133-0.3879-0.6133 0.2598h-0.2441v-0.6484c-0.1228-0.3887-0.491-0.3872-0.7363-0.2578-0.245 0.2593-0.3683 0.5168-0.6133 0.6465-0.2453 0.1294-0.6116 0.3895-0.7344 0.2598-0.7356-0.5183-1.105 7.656e-4 -1.596 0.2598-0.2453 0.1296-0.3663 0.2593-0.6113 0.3887-0.1228-0.6477-0.8599-0.0014-0.9824-0.5195-0.1225-0.5183-0.2436-0.3872-0.6113-0.2578-0.2453 0.1296-0.3686 0.7758-0.7363 0.2578-0.2453 0.259-0.6121 0.3895-0.8574 0.2598-0.1225 0-0.3677-0.1304-0.4902-0.2598-0.2453-0.648-0.2466-0.3887-0.3691 0 0 0.1294-0.4908 0.2598-0.6133 0.2598-0.7355-0.259-1.349 0.1296-2.084 0-0.2453 0-0.4908 0.1304-0.6133 0.2598-0.3678 0.2593-0.7353 0.5183-0.9805 0.7773-0.1225 0.1296-0.3677 0.2586-0.4902 0.1289-0.2453-0.1296-0.3677-0.259-0.4902 0-0.2453 0.259-0.4897 0.647-0.8574 0.9062-0.2453 0.1294-0.7363 0.3895-0.7363 0.2598-0.3678-0.3887-0.7349 0.2583-0.8574 0.1289-0.4905-0.5183-0.4913 0.1302-0.7363 0.2598-0.613 0.2593-1.225 0.647-1.838 0.9062-0.2453 0.1296-0.4911-0.2578-0.7363-0.2578s-0.4894 0.2578-0.7344 0.2578c-1.226 0.3887-2.33 0.6485-3.434 1.426-0.4903 0.3887-1.103 0.5184-1.471 1.037-0.1225 0.1294-0.3677 0.1289-0.4902 0.1289-0.4905-0.1294-0.8589 0.2605-1.227 0.5195-0.3678 0.259-0.9805 0.259-1.471 0.3887-0.1228 0-0.1236 0.1289-0.2461 0.1289-0.1225 0.259-0.2447 0.5188-0.3672 0.6484-0.2453 0.1296-0.4913-0.1309-0.7363-0.1309-0.2453 0-0.3677 0.1296-0.4902 0.3887-0.1225 0.2593-0.8574 0.2606-0.8574 0.1309 0.1225-1.036-0.8589-0.9078-1.227-1.426-0.3678-0.5183-0.7361-0.5183-1.227-0.7773-0.245-0.1296-0.4902-0.2593-0.4902-0.3887 0-0.648 1e-3 -0.5183-0.7344-0.3887-0.4908 0.1294-1.106 0.1301-1.473 0.6484s-1.103 0.2582-1.471 0.9062c-0.1217 0.1294-0.4902 0.1289-0.4902-0.2598h-0.7344c-0.1217 0-0.3691 4.93e-4 -0.3691-0.1289-0.1217-0.2593-0.1217-0.5182-0.2461-0.7773-0.2434 0.259-0.3667 0.5176-0.7344 0.1289-0.2434-0.259-0.2428-0.1301-0.3672 0.1289-0.1217 0.259-0.2447 0.5195-0.3691 0.5195-0.3678 0-0.9785-0.1296-0.9785-0.3887-0.1244-0.907-0.6143-0.6492-1.229-0.5195-0.4895-0.6477-0.9777-0.1288-1.346 0.2598-0.1244 0.1296-0.3679 0.3892-0.4922 0.2598-0.8572-0.3887-1.593 0.5175-2.453 0.1289 0 0-0.1224 0.2598-0.2441 0.2598-0.3678 0.3887-0.736 1.166-1.229 1.166-0.8572 0.1294-1.471 0.6469-2.082 1.035-0.3678 0.1296-0.6127 0.5183-0.9805 0-0.1217-0.1296-0.6146-0.2577-0.7363 0.1309 0 0.1294-0.1211 0.259-0.1211 0.3887 0-0.1296-0.125-0.2593-0.125-0.3887-0.3678-0.5183-0.3667-0.5196-0.7344-0.1309-0.7355 0.7774-0.7362 0.7781-1.594-0.1289-0.1217-0.1294-0.2468-0.1302-0.4902-0.2598-0.1244 0-0.9802 0.5195-1.102 0.5195-0.2461 0.259-0.4935 0.5175-0.8613 0.1289-0.2434-0.259-0.4897 0.5176-0.8574 0.1289-0.2461-0.259-0.6127-0.1284-0.9805-0.2578-0.1217 0-0.1211-0.1301-0.1211-0.2598-0.1244-0.3887-0.1244-0.3895-0.2461-0.2598-0.3678 0.3887-0.8588 0.9079-1.227 1.297h-0.2461v-0.5195c-0.3678 0.1296-0.8568-0.1283-1.225 0.1309-0.2461 0.1294-0.736-0.1309-1.104-0.1309-0.2461 0-0.3673-0.2578-0.6133-0.2578-0.1217 0-0.2455 0.5176-0.3672 0.5176-0.3678-0.1294-0.6146 0.6473-0.9824 0.1289-0.4895 0.3887-0.8569-0.7767-1.471-0.1289 0 0-0.4884-4.34e-4 -0.7344 0.1289-0.2434 0.1296-0.368 0.5183-0.8574 0-0.2461-0.259-0.4903 0.3899-0.7363 0.5195-0.2461 0.1294-0.6146-0.0013-0.7363-0.1309-0.1217-0.1294-0.2461-0.3875-0.2461-0.6465 0-0.3887 1e-3 -0.5183-0.2422-0.3887-0.2461 0.1294-0.3672 0.259-0.3672 0-0.1244-0.2593-0.1244-0.3891-0.2461-0.6484 0-0.1294 0-0.3895-0.2461-0.2598-0.2461 0.259-0.7363 0.2602-0.9824 0.5195-0.2434 0.3887-0.6114-0.1308-0.8574 0.2578s-0.8561 0.2602-0.9805 0.5195c-0.4895 0.7773-1.104 0.3875-1.594 0.2578-0.4895-0.259-0.736 0.1296-1.104 0h-1.35c-0.4895 0-0.9787 2.8e-5 -1.471-0.3887-0.4895-0.3887-1.224-0.259-1.713-0.7773-0.7355 0.259-1.471-0.5176-2.207-0.1289l-0.2461-0.1289c0.1217-0.648-0.4935-0.6479-0.6152-0.7773-0.2461-1.037-0.6121-0.1309-0.8555-0.1309h-0.6152c-0.2461 0-0.4884-0.5183-0.7344 0-0.2461-0.259-0.4902-0.5176-0.4902-0.9062s-0.2456-0.6484-0.6133-0.6484c-0.1217 0-0.3685 6.94e-4 -0.4902-0.1289-0.1244-0.1294 0.1223-0.6485-0.3672-0.2598-0.2461 0.259-0.6133 0.6484-0.8594 0.6484-0.2434 0-0.6127-0.3883-0.9805-0.5176-0.2461-0.1296-0.4916-0.3899-0.8594-0.5195-0.1217-0.1296-0.3666-0.1296-0.4883 0-0.2461 0.259-0.614 0.3887-0.8574 0-0.1244-0.1296-6e-4 -0.5182 0.1211-0.7773 0-0.1296 0.1211-0.1284 0.1211-0.2578 0-0.2593 1e-3 -0.3894-0.2422-0.2598-0.1244 0.1296-0.4935 0.1289-0.6152 0.1289-0.8572-0.1296-0.857-0.1284-1.717 0.5195-0.979 0.518-1.225 0.5176-1.225 0.5176-0.3678-0.259-0.8577-0.6469-1.229-1.035-0.1217-0.1296 0-0.3899 0-0.5195-0.1217 0.1296-0.3666 0.1301-0.4883 0.2598h-0.2461c0-0.907-0.2442-0.7781-0.7363-0.2598-0.1217 0.1296-0.6114 0.1296-0.8574 0-0.1217 0-0.2455-0.3883-0.3672-0.5176-0.1217 0.1294-0.1211 0.3883-0.3672 0.5176 0 0-0.3691-0.1284-0.3691-0.2578-0.1217-0.2593-0.1211-0.5196-0.3672-0.1309-0.1217 0.2593-0.3685 0.3899-0.4902 0.5195-0.4921 0.3887-1.349-0.0012-1.471-0.5195-0.1244-0.3887-8.8e-5 -0.9058-0.4922-0.2578-0.3678 0.6477-0.7352 0.5171-1.225 0.2578-0.1217-0.1294-0.4902-0.2578-0.4902-0.2578-0.2461 0.3887-0.7342 0.1284-1.102 0.2578-0.3678 0.1296-0.6146 0.1296-0.9824 0-0.1217 0-0.3685 0.2593-0.4902 0.3887-0.2461 0.3887-0.3673-0.3887-0.6133 0-0.3678 0.5183-0.8559 0.5188-1.348 0.2598-0.1217 0-0.2461-0.1296-0.2461 0-0.3678 0.6477-0.736 0.259-1.104 0-0.2434-0.1296-0.2441-0.1296-0.4902 0-0.6138 0.259-1.224 0.3887-1.838 0.3887-0.4895 0-1.593 0.1294-1.961 0.3887-0.6138 0.518-1.104 0.3882-1.596-0.2598-0.2434-0.3887-0.2428-0.2585-0.3672-0.1289-0.3678 0.259-0.8579 0.3894-1.348 0.6484-0.4921-0.6477-0.8596 0.388-1.471 0.1289-0.2461-0.1296-0.4916 6.94e-4 -0.6133-0.1289-0.2461-0.1296-0.4909-0.3894-0.6152-0.6484-0.2434-0.2593-0.3679 0.3887-0.6113 0-0.2461-0.3887-0.6125-0.9069-1.348-0.7773-0.1244 0-0.3691-0.3882-0.3691-0.5176-0.2461-0.648-0.245-0.6485-0.7344-0.2598-0.4921 0.3887-0.8607 0.3894-0.9824-0.1289-0.2461-0.648-0.7351-1.038-1.225-1.426-0.6138-0.6477-1.228-0.6472-1.963-0.1289-0.1217 0.1294-0.2428 0.259-0.3672 0.3887h-0.2441c-0.3678-0.2593-1.717-1.037-1.963-1.037h-0.1211c-0.3678 0.3887-0.858 0.1301-0.9824-0.1289-0.2434-0.2593-0.858 0.3887-0.7363-0.3887h-0.2422c-0.1244 0.1294-0.3679 0.3883-0.4922 0.5176-0.1217 0.1296-0.3685 0.2598-0.4902 0.2598-0.3678-0.1296-0.7341-0.2605-1.102-0.5195l0.1211-0.1289c0.2461-0.259 0.125-0.3895-0.1211-0.2598-0.6138 0.259-1.473 0.2601-1.965 1.037-0.3678 0.5183-0.8559 0.6473-1.346 0.5176-0.4921 0-0.9821 4.4e-5 -1.104 0.7773 0 0.1296-0.125 0.1304-0.125 0.2598-0.4895-0.7774-0.9777 0.3887-1.346 0-0.6138-0.6477-1.104-6.94e-4 -1.596 0.1289-0.2434 0.1296-0.7357-0.3894-0.8574 0.1289-0.1217-0.1296-0.3666-0.2578-0.4883-0.2578-0.3678-0.1294-0.6152-0.1309-0.8613 0.2578-0.1217 0.1296-0.2428 0.2598-0.3672 0.2598-0.3678 0.1296-0.8568-0.1289-1.225 0.2598-0.2461 0.259-0.614-0.5183-0.8574 0h-0.2461c-0.4895-0.5183-0.8604-0.2598-1.229 0.1289-0.1217 0.1296-0.4883 0.2598-0.4883 0.2598-0.2461-0.2593-0.3692-0.2593-0.6152 0-0.2434 0.1294-0.4884 0.2578-0.7344 0.2578-0.2434 0-0.612-0.2583-0.7363-0.1289-0.3678 0.5183-1.347-0.1295-1.471 0.7773 0 0-0.2428 0.1296-0.3672 0-0.2434-0.1294-0.4902-0.5176-0.7363-0.5176-0.2434 0-0.2442 0.6477-0.7363 0.3887-0.2434-0.1296-0.4884 0.1289-0.7344 0.1289-0.2434 0-0.4903-0.2598-0.7363-0.2598-0.1217 0-0.3672-0.1296-0.3672 0-0.4895 0.5183-0.858 0.907-1.594 0.3887-0.2461 0.5183-0.614 0-0.8574 0-0.3678 0.1296-0.7345 0.259-0.9805 0.3887-0.3678 0.259-0.7363 0.0012-0.9824-0.2578-0.8572-0.648-1.961-0.7774-2.82-0.3887-0.1217 0-0.2422-0.1309-0.2422-0.1309-0.3678 0.259-0.736-0.1288-1.104 0.2598-0.4921 0.5183-1.227 0.9079-1.838 1.297-0.3678 0.259-0.9821 0.5183-1.229 0.3887-0.4895-0.259-0.8568-0.2598-1.225-0.2598-0.2461 0-0.614 0.1294-0.8574 0-0.3678-0.2593-0.4935 0.6472-0.8613 0.1289-0.1217-0.259-0.366-0.5168-0.6094-0.6465-0.2461-0.1296-0.737 2.8e-5 -0.8613-0.3887v-0.2598c0.8599-0.1296 0.1244-0.5176 0-0.5176-0.3678-0.3887-0.8559 0.3887-1.348 0-0.979 0.3887-1.962 0.2582-2.943-0.2598-0.8572-0.5183-1.225-0.3892-2.082-0.2598-0.4921 0.1296-0.3679 0.6484-0.4922 0.6484-0.7355-0.5183-1.224 0.1302-1.713 0.2598h-0.2461c0-0.3887-7.35e-4 -0.6485-0.4902-0.2598-0.6138 0-1.104-0.3892-1.35-0.2598-0.6138 0.2593-0.6121-0.2585-0.8555-0.5176-0.2461-0.2593-0.6146-0.3882-0.9824-0.1289-0.2461 0.1296-0.489 0.5183-0.6133 0.3887-0.2434-0.259-0.4903-0.1296-0.7363 0-0.1217 0.1296-0.4884 0-0.7344 0l-0.8574 0.2578c-0.1244 0-0.2474 0.0013-0.3691 0.1309 0-0.5183-0.3673-0.3899-0.6133-0.5195-0.2461-0.1294-0.3673-0.647-0.6133-0.9062-0.3678-0.3887-0.7362-0.6477-0.2441-1.166 0 0-0.123-0.259-0.123-0.3887h-0.2441c-0.3678 0.3887-0.736 1.037-1.104 1.166-0.6035 0.1274-1.218-0.1204-1.703-0.252v18.91h625.9v-18.92c-0.6128 0.7773-0.8841-0.1992-1.619-0.5879 0 0-0.1326 0.1424-0.1953 0.4414 0.0183 0.01933 0.0723 0.07617 0.0723 0.07617 0 0.09466-0.0329 0.1551-0.1289 0.1484-3e-3 0.0019-9e-3 0.0179-0.0195-0.0039-0.033-6e-3 -0.0411 0.01518-0.0957-0.01367-0.4903-0.1294-0.9814 0.2578-1.35 0.2578-0.8583-0.2593-1.641-0.8152-2.254-0.2969-0.3678 0.259-0.4908 0.519-0.6133-0.1289 0 0-0.4902-6.94e-4 -0.4902 0.1289 0 0.3887-0.1225 0.6485-0.4902 0.2598-0.2453-0.259-0.3681-0.518-0.6133 0 0 0-0.2463-0.0015-0.3691-0.1309-0.3678-0.2593-0.6113-0.3879-0.6113 0.2598h-0.2461v-0.6484c-0.1228-0.3887-0.491-0.3872-0.7363-0.2578-0.245 0.2593-0.3663 0.5168-0.6113 0.6465-0.2453 0.1294-0.6135 0.3895-0.7363 0.2598-0.7356-0.5183-1.103 7.66e-4 -1.594 0.2598-0.2453 0.1296-0.38-2.09-0.625-1.961-0.1228-0.6477-0.858-0.0014-0.9805-0.5195-0.1225-0.5183-0.2456-0.3872-0.6133-0.2578-0.2453 0.1296-0.3667 0.7758-0.7344 0.2578-0.2453 0.259-0.6141 0.3895-0.8594 0.2598-0.1225 0-0.3677-0.1304-0.4902-0.2598-0.2453-0.648-0.2447-0.3887-0.3672 0 0 0.1294-0.4908 0.2598-0.6133 0.2598-0.7355-0.259-1.349 0.1296-2.084 0-0.2453 0-0.4908 0.1304-0.6133 0.2598-0.3678 0.2593-0.7353 0.5183-0.9805 0.7773-0.1225 0.1296-0.3677 0.2586-0.4902 0.1289-0.2453-0.1296-0.3677-0.259-0.4902 0-0.2453 0.259-0.4917 0.647-0.8594 0.9062-0.2453 0.1294-0.7344 0.3895-0.7344 0.2598-0.3678-0.3887-0.7369 0.2583-0.8594 0.1289-0.4905-0.5183-0.4894 0.1302-0.7344 0.2598-0.613 0.2593-1.227 0.647-1.84 0.9062-0.2453 0.1296-0.4892-0.2578-0.7344-0.2578s-0.4913 0.2578-0.7363 0.2578c-1.226 0.3887-2.33 0.6485-3.434 1.426-0.4903 0.3887-1.103 0.5184-1.471 1.037-0.1225 0.1294-0.3677 0.1289-0.4902 0.1289-0.4905-0.1294-0.8569 0.2605-1.225 0.5195-0.3678 0.259-0.9825 0.259-1.473 0.3887-0.1228 0-0.1216 0.1289-0.2441 0.1289-0.1225 0.259-0.2466 0.5188-0.3691 0.6484-0.2453 0.1296-0.4894-0.1309-0.7344-0.1309-0.2453 0-0.3677 0.1296-0.4902 0.3887-0.1225 0.2593-0.8594 0.2606-0.8594 0.1309 0.1225-1.036-0.8569-0.9078-1.225-1.426-0.3678-0.5183-0.7361-0.5183-1.227-0.7773-0.245-0.1296-0.4902-0.2593-0.4902-0.3887 0-0.648-7.3e-4 -0.5183-0.7363-0.3887-0.4908 0.1294-1.104 0.1301-1.471 0.6484s-1.103 0.2582-1.471 0.9062c-0.1217 0.1294-0.4902 0.1289-0.4902-0.2598h-0.7363c-0.1217 0-0.3672 4.93e-4 -0.3672-0.1289-0.1217-0.2593-0.1217-0.5182-0.2461-0.7773-0.2434 0.259-0.3686 0.5176-0.7363 0.1289-0.2434-0.259-0.2428-0.1301-0.3672 0.1289-0.1217 0.259-0.2428 0.5195-0.3672 0.5195-0.3678 0-0.9785-0.1296-0.9785-0.3887-0.1244-0.907-0.6143-0.6492-1.229-0.5195-0.4895-0.6477-0.9797-0.1288-1.348 0.2598-0.1244 0.1296-0.3679 0.3892-0.4922 0.2598-0.8572-0.3887-1.593 0.5175-2.453 0.1289 0 0-0.1205 0.2598-0.2422 0.2598-0.3678 0.3887-0.736 1.166-1.229 1.166-0.8572 0.1294-1.471 0.6469-2.082 1.035-0.3678 0.1296-0.6146 0.5183-0.9824 0-0.1217-0.1296-0.6127-0.2577-0.7344 0.1309 0 0.1294-0.123 0.259-0.123 0.3887 0-0.1296-0.123-0.2593-0.123-0.3887-0.3678-0.5183-0.3686-0.5196-0.7363-0.1309-0.7355 0.7774-0.7343 0.7781-1.592-0.1289-0.1217-0.1294-0.2468-0.1302-0.4902-0.2598-0.1244 0-0.9821 0.5195-1.104 0.5195-0.2461 0.259-0.4916 0.5175-0.8594 0.1289-0.2434-0.259-0.4897 0.5176-0.8574 0.1289-0.2461-0.259-0.6146-0.1284-0.9824-0.2578-0.1217 0-0.1211-0.1301-0.1211-0.2598-0.1244-0.3887-0.1244-0.3895-0.2461-0.2598-0.3678 0.3887-0.8568 0.9079-1.225 1.297h-0.2461v-0.5195c-0.3678 0.1296-0.8568-0.1283-1.225 0.1309-0.2461 0.1294-0.736-0.1309-1.104-0.1309-0.2461 0-0.3673-0.2578-0.6133-0.2578-0.1217 0-0.2474 0.5176-0.3692 0.5176-0.3678-0.1294-0.6127 0.6473-0.9805 0.1289-0.4895 0.3887-0.8569-0.7767-1.471-0.1289 0 0-0.4903-4.34e-4 -0.7363 0.1289-0.2434 0.1296-0.368 0.5183-0.8574 0-0.2461-0.259-0.4884 0.3899-0.7344 0.5195-0.2461 0.1294-0.6146-0.0013-0.7363-0.1309-0.1217-0.1294-0.2461-0.3875-0.2461-0.6465 0-0.3887-7.4e-4 -0.5183-0.2441-0.3887-0.2461 0.1294-0.3672 0.259-0.3672 0-0.1244-0.2593-0.1244-0.3891-0.2461-0.6484 0-0.1294 1e-5 -0.3895-0.2461-0.2598-0.2461 0.259-0.7344 0.2602-0.9805 0.5195-0.2434 0.3887-0.6114-0.1308-0.8574 0.2578s-0.858 0.2602-0.9824 0.5195c-0.4895 0.7773-1.104 0.3875-1.594 0.2578-0.4895-0.259-0.7341 0.1296-1.102 0h-1.35c-0.4895 0-0.9787 2.8e-5 -1.471-0.3887-0.4895-0.3887-1.226-0.259-1.715-0.7773-0.7355 0.259-1.471-0.5176-2.207-0.1289l-0.2461-0.1289c0.1217-0.648-0.4916-0.6479-0.6133-0.7773-0.2461-1.037-0.614-0.1309-0.8574-0.1309h-0.6133c-0.2461 0-0.4903-0.5183-0.7363 0-0.2461-0.259-0.4883-0.5176-0.4883-0.9062s-0.2475-0.6484-0.6152-0.6484c-0.1217 0-0.3666 6.94e-4 -0.4883-0.1289-0.1244-0.1294 0.1223-0.6485-0.3672-0.2598-0.2461 0.259-0.6152 0.6484-0.8613 0.6484-0.2434 0-0.6107-0.3883-0.9785-0.5176-0.2461-0.1296-0.4916-0.3899-0.8594-0.5195-0.1217-0.1296-0.3685-0.1296-0.4902 0-0.2461 0.259-0.614 0.3887-0.8574 0-0.1244-0.1296 1e-3 -0.5182 0.123-0.7773 0-0.1296 0.1211-0.1284 0.1211-0.2578 0-0.2593-7.4e-4 -0.3894-0.2441-0.2598-0.1244 0.1296-0.4916 0.1289-0.6133 0.1289-0.8572-0.1296-0.857-0.1284-1.717 0.5195-0.979 0.518-1.225 0.5176-1.225 0.5176-0.3678-0.259-0.8577-0.6469-1.229-1.035-0.1217-0.1296 0-0.3899 0-0.5195-0.1217 0.1296-0.3685 0.1301-0.4902 0.2598h-0.2461c0-0.907-0.2423-0.7781-0.7344-0.2598-0.1217 0.1296-0.6114 0.1296-0.8574 0-0.1217 0-0.2455-0.3883-0.3672-0.5176-0.1217 0.1294-0.123 0.3883-0.3691 0.5176 0 0-0.3672-0.1284-0.3672-0.2578-0.1217-0.2593-0.1211-0.5196-0.3672-0.1309-0.1217 0.2593-0.3685 0.3899-0.4902 0.5195-0.4921 0.3887-1.349-0.0012-1.471-0.5195-0.1244-0.3887-8e-5 -0.9058-0.4922-0.2578-0.3678 0.6477-0.7352 0.5171-1.225 0.2578-0.1217-0.1294-0.4902-0.2578-0.4902-0.2578-0.2461 0.3887-0.7361 0.1284-1.104 0.2578-0.3678 0.1296-0.6127 0.1296-0.9805 0-0.1217 0-0.3685 0.2593-0.4902 0.3887-0.2461 0.3887-0.3673-0.3887-0.6133 0-0.3678 0.5183-0.8578 0.5188-1.35 0.2598-0.1217 0-0.2461-0.1296-0.2461 0-0.3678 0.6477-0.736 0.259-1.104 0-0.2434-0.1296-0.2422-0.1296-0.4883 0-0.6138 0.259-1.226 0.3887-1.84 0.3887-0.4895 0-1.593 0.1294-1.961 0.3887-0.6138 0.518-1.102 0.3882-1.594-0.2598-0.2434-0.3887-0.2447-0.2585-0.3691-0.1289-0.3678 0.259-0.8559 0.3894-1.346 0.6484-0.4921-0.6477-0.8616 0.388-1.473 0.1289-0.2461-0.1296-0.4916 6.94e-4 -0.6133-0.1289-0.2461-0.1296-0.489-0.3894-0.6133-0.6484-0.2434-0.2593-0.3679 0.3887-0.6113 0-0.2461-0.3887-0.6144-0.9069-1.35-0.7773-0.1244 0-0.3672-0.3882-0.3672-0.5176-0.2461-0.648-0.2469-0.6485-0.7363-0.2598-0.4921 0.3887-0.8588 0.3894-0.9805-0.1289-0.2461-0.648-0.7351-1.038-1.225-1.426-0.6138-0.6477-1.228-0.6472-1.963-0.1289-0.1217 0.1294-0.2447 0.259-0.3691 0.3887h-0.2422c-0.3678-0.2593-1.717-1.037-1.963-1.037h-0.123c-0.3678 0.3887-0.8561 0.1301-0.9805-0.1289-0.2434-0.2593-0.858 0.3887-0.7363-0.3887h-0.2441c-0.1244 0.1294-0.3659 0.3883-0.4902 0.5176-0.1217 0.1296-0.3685 0.2598-0.4902 0.2598-0.3678-0.1296-0.736-0.2605-1.104-0.5195l0.1211-0.1289c0.2461-0.259 0.125-0.3895-0.1211-0.2598-0.6138 0.259-1.471 0.2601-1.963 1.037-0.3678 0.5183-0.8579 0.6473-1.348 0.5176-0.4921 0-0.9802 4.4e-5 -1.102 0.7773 0 0.1296-0.125 0.1304-0.125 0.2598-0.4895-0.7774-0.9797 0.3887-1.348 0-0.6138-0.6477-1.102-6.94e-4 -1.594 0.1289-0.2434 0.1296-0.7357-0.3894-0.8574 0.1289-0.1217-0.1296-0.3685-0.2578-0.4902-0.2578-0.3678-0.1294-0.6133-0.1309-0.8594 0.2578-0.1217 0.1296-0.2428 0.2598-0.3672 0.2598-0.3678 0.1296-0.8588-0.1289-1.227 0.2598-0.2461 0.259-0.6121-0.5183-0.8555 0h-0.2461c-0.4895-0.5183-0.8604-0.2598-1.229 0.1289-0.1217 0.1296-0.4902 0.2598-0.4902 0.2598-0.2461-0.2593-0.3673-0.2593-0.6133 0-0.2434 0.1294-0.4903 0.2578-0.7363 0.2578-0.2434 0-0.6101-0.2583-0.7344-0.1289-0.3678 0.5183-1.347-0.1295-1.471 0.7773 0 0-0.2447 0.1296-0.3691 0-0.2434-0.1294-0.4883-0.5176-0.7344-0.5176-0.2434 0-0.2442 0.6477-0.7363 0.3887-0.2434-0.1296-0.4903 0.1289-0.7363 0.1289-0.2434 0-0.4884-0.2598-0.7344-0.2598-0.1217 0-0.3672-0.1296-0.3672 0-0.4895 0.5183-0.858 0.907-1.594 0.3887-0.2461 0.5183-0.614 0-0.8574 0-0.3678 0.1296-0.7345 0.259-0.9805 0.3887-0.3678 0.259-0.7363 0.0012-0.9824-0.2578-0.8572-0.648-1.961-0.7774-2.82-0.3887-0.1217 0-0.2441-0.1309-0.2441-0.1309-0.3678 0.259-0.7341-0.1288-1.102 0.2598-0.4921 0.5183-1.229 0.9079-1.84 1.297-0.3678 0.259-0.9821 0.5183-1.229 0.3887-0.4895-0.259-0.8568-0.2598-1.225-0.2598-0.2461 0-0.614 0.1294-0.8574 0-0.3678-0.2593-0.4916 0.6472-0.8594 0.1289-0.1217-0.259-0.3679-0.5168-0.6113-0.6465-0.2461-0.1296-0.7351 2.8e-5 -0.8594-0.3887v-0.2598c0.8599-0.1296 0.1244-0.5176 0-0.5176-0.3678-0.3887-0.8578 0.3887-1.35 0-0.979 0.3887-1.96 0.2582-2.941-0.2598-0.8572-0.5183-1.225-0.3892-2.082-0.2598-0.4921 0.1296-0.3679 0.6484-0.4922 0.6484-0.7355-0.5183-1.226 0.1302-1.715 0.2598h-0.2461c0-0.3887 1e-3 -0.6485-0.4883-0.2598-0.6138 0-1.104-0.3892-1.35-0.2598-0.6138 0.2593-0.614-0.2585-0.8574-0.5176-0.2461-0.2593-0.6127-0.3882-0.9805-0.1289-0.2461 0.1296-0.4909 0.5183-0.6152 0.3887-0.2434-0.259-0.4884-0.1296-0.7344 0-0.1217 0.1296-0.4903 0-0.7363 0l-0.8574 0.2578c-0.1244 0-0.2455 0.0013-0.3672 0.1309 0-0.5183-0.3673-0.3899-0.6133-0.5195-0.2461-0.1294-0.3692-0.647-0.6152-0.9062-0.3678-0.3887-0.7343-0.6477-0.2422-1.166 0 0-0.125-0.259-0.125-0.3887h-0.2422c-0.3678 0.3887-0.736 1.037-1.104 1.166-0.6034 0.1274-1.205-0.1204-1.689-0.252v-0.05077l-0.2461-0.1289c-0.2452 0.259-0.4911 0.259-0.7363 0-0.1226-0.1296-0.4892 6.94e-4 -0.7344-0.1289-0.3373-0.1018-0.5041-0.3512-0.791-0.2051-0.2882 0.1468-1.19 0.227-1.785 0.4629-0.1226 0-0.2446-0.1282-0.3672-0.2578-0.2452 0-0.6059-0.4823-0.7285-0.09375 0 0.3887-0.234-0.4254-0.4102-0.7188-0.3678 0-0.4558 0.3659-1.068 0.2363-0.3678-0.1294-0.367-1.325-0.8574-1.455-0.2452-0.1296-0.6127 0.519-0.9805 0.6484-0.1226 0.1296-0.3676 4.94e-4 -0.4902-0.1289-0.7356-0.1296-1.35-0.3899-1.963 0.2578-0.3678 0.3887-0.4907 0.3899-0.6133-0.2578 0-0.3887-0.122-0.5196-0.3672-0.1309-0.1226 0.1296-0.3681 0.1308-0.6133 0.5195-0.2452 0.518-0.7342 0.9059-1.225 1.035-0.3678 0.1296-0.9825 0-1.473 0h-0.8574c-0.8582 0-1.594-0.1295-2.207-0.7773-0.1226-0.1296-0.3672-0.2583-0.3672-0.1289-0.613 0.648-1.104 0-1.717 0-0.8582-0.1294-0.8585-0.1294-0.6133-1.166 0-0.1294 1e-3 -0.1302-0.1211-0.2598h-0.2461c-0.2452 0.259-0.3681 0.3894-0.6133 0.6484h-0.2442c-0.1226-0.259-4.4e-4 -0.6484-0.123-0.6484-0.3678-0.259-0.4911 0.259-0.7363 0.3887-0.1226 0-0.2441 0.1296-0.2441 0-0.2452-0.259-0.4911-0.1303-0.7363 0.1289-0.1226-0.2593-0.2446-0.5168-0.3672-0.6465-0.3679-0.259-0.8588-0.6477-1.227-0.7774s-0.9814 0.1283-1.227-0.1309c-0.3678-0.259-0.3675-0.9062-0.9805-0.9062-0.1225-0.648-0.736-0.6472-1.104-0.9062-0.3678-0.259-0.6127-0.3887-0.9805 0-0.4903 0.5183-0.9797 1.424-1.838 0.6465-0.1228-0.1294-0.3681 0.2598-0.6133 0.2598-0.1228 0-0.4902-0.1289-0.4902-0.1289 0.1228-0.907-0.8585-0.9078-1.104-1.426-0.2453-0.2593-0.245-0.2598-0.9805-0.2598-0.3678 0 0.1212-0.7768-0.3691-0.9062h-0.2441c-0.858 0-0.8577 7.219e-4 -1.471-0.5176-0.1225-0.1296-0.3691-0.1309-0.3691-0.1309-0.613 0.3887-1.103 0.6492-1.471-0.2578 0-0.1296-0.6117-0.1303-0.7344 0.1289-0.3678 0.259-0.4919 0.6473-0.9824 0.5176-0.3678-0.1294-0.8574 0.2597-0.8574-0.5176h-0.2441c-0.2453 0.1294-0.3677 0.3883-0.4902 0.5176h-0.2461c0.2453-0.6477-0.6133-0.259-0.6133-0.7773-0.2453-0.1294-0.2442 0.39-0.7344 0.1309-0.3678-0.259-0.9825-0.7786-1.596-0.1309-0.3678 0.2593-0.3672-0.2585-0.3672-0.5176-0.1225 0-0.3677-4.938e-4 -0.4902 0.1289-0.2453 0-0.3681 0.1301-0.6133 0.2598v0.2598c0 0.1296-2.5e-4 0.1284-0.123 0.2578-0.1225-0.1294-0.1216-0.1282-0.2441-0.2578v-0.2598c-0.3678 0.259-0.6127 0.6477-0.9805 0.7773-0.1228 0.1294-0.3675 0-0.4902 0-0.1225-0.1296-0.4908-0.2586-0.123-0.5176 0.1225-0.1296 0.123-0.3899 0.123-0.5195-0.3678 0-0.4917 0.6493-0.8594 0.1309-0.3678-0.3887-0.6116-0.6485-1.225-0.2598-0.1225 0.1294-0.4911-4.656e-4 -0.7363-0.2598-0.3678-0.3887-0.8589-0.9062-1.227-0.9062-0.7355 0-0.8566-0.6481-1.225-1.037-0.1228-0.1296 0.2439-0.7774-0.3691-0.3887-0.1225 0.1296-0.6133-0.2583-0.6133-0.1289zm255.9 11.73c7e-3 0.0012 0.0135 0.0035 0.0195 0.0039 3e-3 -0.0018 8e-3 0.01806 8e-3 -0.01758 0-0.1033 0.0332-0.1326 0.0488-0.207-0.0436-0.04603-0.0856-0.09036-0.1719-0.1816v0.2578c0.0546 0.05767 0.0789 0.1097 0.0957 0.1445zm-624-0.0625v-0.0078c0.008243 0.0022-0.008314 0.0056 0 0.0078zm200.6-3.453c-0.0439-0.05248-0.0863-0.09107-0.1719-0.1816v0.2598c0.1225 0.1294 0.123 0.2585 0.123 0.1289 0-0.1032 0.0332-0.1326 0.0488-0.207zm165.6-6.66 0.123 0.1289s-0.123 0.00126-0.123 0.1309c-0.1228-0.1296 0-0.2598 0-0.2598zm-37.15 5.055h0.1211c0 0.03056-0.0277 0.04101-0.0293 0.06055-0.0313-0.01231-0.0565-0.07918-0.0918-0.06055zm0.041 0.1719c-0.0181 0.02403-6e-5 0.04261-0.041 0.08594h-0.123s0.0908-0.04751 0.1641-0.08594zm-51.01 2.158c0 0.1296-0.123 0.1304-0.123 0.2598l-0.123-0.1289c0.1225 0 0.1236-0.1309 0.2461-0.1309zm-211.7 2.074c0 0.1294-6.06e-4 0.1282 0.1211 0.2578-0.1217 0-0.1205 6.94e-4 -0.2422-0.1289 0 0-6.06e-4 -0.1289 0.1211-0.1289zm423.3 0c0 0.1294-6.1e-4 0.1282 0.1211 0.2578-0.1217 0-0.1224 6.94e-4 -0.2441-0.1289 0 0 1e-3 -0.1289 0.123-0.1289zm-259.8 1.684c0 0.1296-0.1211 0.1301-0.1211 0.2598l-0.123-0.1309c0.1225-0.1296 0.1213-0.1289 0.2441-0.1289zm-215.3 0.7773 0.1211 0.1289c-0.1217 0.1296-0.1205 0.1309-0.2422 0.1309 0-0.1296 0.1211-0.1304 0.1211-0.2598zm423.3 0 0.1211 0.1289c-0.1217 0.1296-0.1224 0.1309-0.2441 0.1309 0-0.1296 0.123-0.1304 0.123-0.2598z"/>
</svg>
