<svg viewBox="0 0 515 450" fill="none" xmlns="http://www.w3.org/2000/svg">
<path fill-rule="evenodd" clip-rule="evenodd" d="M4.26742 0H3.734V3.734H0V4.26742H3.734V8.00142H4.26742V4.26742H8.00142V3.734H4.26742V0ZM4.26742 88.4424H3.734V92.1764H0V92.7098H3.734V96.4438H4.26742V92.7098H8.00142V92.1764H4.26742V88.4424ZM76.6002 176.778H75.9601V180.512H72.3328V181.046H75.9601V184.78H76.6002V181.046H80.2275V180.512H76.6002V176.778ZM75.9601 265.22H76.6002V268.954H80.2275V269.488H76.6002V273.222H75.9601V269.488H72.3328V268.954H75.9601V265.22ZM75.9601 353.556H76.6002V357.29H80.2275V357.824H76.6002V361.558H75.9601V357.824H72.3328V357.29H75.9601V353.556ZM75.9601 441.999H76.6002V445.733H80.2275V446.266H76.6002V450H75.9601V446.266H72.3328V445.733H75.9601V441.999ZM148.293 441.999H148.826V445.733H152.56V446.266H148.826V450H148.293V446.266H144.559V445.733H148.293V441.999ZM221.052 441.999H220.626V445.733H216.785V446.266H220.626V450H221.052V446.266H224.893V445.733H221.052V441.999ZM292.852 441.999H293.386V445.733H297.12V446.266H293.386V450H292.852V446.266H289.118V445.733H292.852V441.999ZM365.718 441.999H365.078V445.733H361.451V446.266H365.078V450H365.718V446.266H369.346V445.733H365.718V441.999ZM437.411 441.999H437.944V445.733H441.678V446.266H437.944V450H437.411V446.266H433.677V445.733H437.411V441.999ZM510.171 441.999H509.744V445.733H505.903V446.266H509.744V450H510.171V446.266H514.011V445.733H510.171V441.999ZM148.826 353.556H148.293V357.29H144.559V357.824H148.293V361.558H148.826V357.824H152.56V357.29H148.826V353.556ZM220.626 353.556H221.052V357.29H224.893V357.824H221.052V361.558H220.626V357.824H216.785V357.29H220.626V353.556ZM293.386 353.556H292.852V357.29H289.118V357.824H292.852V361.558H293.386V357.824H297.12V357.29H293.386V353.556ZM365.078 353.556H365.718V357.29H369.346V357.824H365.718V361.558H365.078V357.824H361.451V357.29H365.078V353.556ZM437.944 353.556H437.411V357.29H433.677V357.824H437.411V361.558H437.944V357.824H441.678V357.29H437.944V353.556ZM509.744 353.556H510.171V357.29H514.011V357.824H510.171V361.558H509.744V357.824H505.903V357.29H509.744V353.556ZM4.26742 441.999H3.734V445.733H0V446.266H3.734V450H4.26742V446.266H8.00142V445.733H4.26742V441.999ZM148.826 265.22H148.293V268.954H144.559V269.488H148.293V273.222H148.826V269.488H152.56V268.954H148.826V265.22ZM220.626 265.22H221.052V268.954H224.893V269.488H221.052V273.222H220.626V269.488H216.785V268.954H220.626V265.22ZM293.386 265.22H292.852V268.954H289.118V269.488H292.852V273.222H293.386V269.488H297.12V268.954H293.386V265.22ZM365.078 265.22H365.718V268.954H369.346V269.488H365.718V273.222H365.078V269.488H361.451V268.954H365.078V265.22ZM437.944 265.22H437.411V268.954H433.677V269.488H437.411V273.222H437.944V269.488H441.678V268.954H437.944V265.22ZM509.744 265.22H510.171V268.954H514.011V269.488H510.171V273.222H509.744V269.488H505.903V268.954H509.744V265.22ZM4.26742 353.556H3.734V357.29H0V357.824H3.734V361.558H4.26742V357.824H8.00142V357.29H4.26742V353.556ZM3.734 265.22H4.26742V268.954H8.00142V269.488H4.26742V273.222H3.734V269.488H0V268.954H3.734V265.22ZM148.293 176.778H148.826V180.512H152.56V181.046H148.826V184.78H148.293V181.046H144.559V180.512H148.293V176.778ZM221.052 176.778H220.626V180.512H216.785V181.046H220.626V184.78H221.052V181.046H224.893V180.512H221.052V176.778ZM292.852 176.778H293.386V180.512H297.12V181.046H293.386V184.78H292.852V181.046H289.118V180.512H292.852V176.778ZM365.718 176.778H365.078V180.512H361.451V181.046H365.078V184.78H365.718V181.046H369.346V180.512H365.718V176.778ZM437.411 176.778H437.944V180.512H441.678V181.046H437.944V184.78H437.411V181.046H433.677V180.512H437.411V176.778ZM510.171 176.778H509.744V180.512H505.903V181.046H509.744V184.78H510.171V181.046H514.011V180.512H510.171V176.778ZM3.734 176.778H4.26742V180.512H8.00142V181.046H4.26742V184.78H3.734V181.046H0V180.512H3.734V176.778ZM75.9601 88.4424H76.6002V92.1764H80.2275V92.7098H76.6002V96.4438H75.9601V92.7098H72.3328V92.1764H75.9601V88.4424ZM148.826 88.4424H148.293V92.1764H144.559V92.7098H148.293V96.4438H148.826V92.7098H152.56V92.1764H148.826V88.4424ZM220.626 88.4424H221.052V92.1764H224.893V92.7098H221.052V96.4438H220.626V92.7098H216.785V92.1764H220.626V88.4424ZM293.386 88.4424H292.852V92.1764H289.118V92.7098H292.852V96.4438H293.386V92.7098H297.12V92.1764H293.386V88.4424ZM365.078 88.4424H365.718V92.1764H369.346V92.7098H365.718V96.4438H365.078V92.7098H361.451V92.1764H365.078V88.4424ZM437.944 88.4424H437.411V92.1764H433.677V92.7098H437.411V96.4438H437.944V92.7098H441.678V92.1764H437.944V88.4424ZM509.744 88.4424H510.171V92.1764H514.011V92.7098H510.171V96.4438H509.744V92.7098H505.903V92.1764H509.744V88.4424ZM75.9601 0H76.6002V3.734H80.2275V4.26742H76.6002V8.00142H75.9601V4.26742H72.3328V3.734H75.9601V0ZM148.826 0H148.293V3.734H144.559V4.26742H148.293V8.00142H148.826V4.26742H152.56V3.734H148.826V0ZM220.519 0H221.052V3.734H224.893V4.26742H221.052V8.00142H220.519V4.26742H216.785V3.734H220.519V0ZM293.386 0H292.852V3.734H289.118V4.26742H292.852V8.00142H293.386V4.26742H297.12V3.734H293.386V0ZM365.078 0H365.718V3.734H369.346V4.26742H365.718V8.00142H365.078V4.26742H361.451V3.734H365.078V0ZM437.944 0H437.411V3.734H433.677V4.26742H437.411V8.00142H437.944V4.26742H441.678V3.734H437.944V0ZM509.744 0H510.171V3.734H514.011V4.26742H510.171V8.00142H509.744V4.26742H505.903V3.734H509.744V0Z" fill="#C4C4C4"/>
</svg>
